<?xml version="1.0" encoding="UTF-8"?>
<svg width="19px" height="31px" viewBox="0 0 19 31" version="1.1" xmlns="http://www.w3.org/2000/svg" xmlns:xlink="http://www.w3.org/1999/xlink">
    <!-- Generator: Sketch 55.1 (78136) - https://sketchapp.com -->
    <title>Group 2</title>
    <desc>Created with Sketch.</desc>
    <g id="Management" stroke="none" stroke-width="1" fill="none" fill-rule="evenodd">
        <g id="ถังเปล่า-mobile" transform="translate(-333.000000, -379.000000)" fill="#FFFFFF" fill-rule="nonzero" stroke="#FFFFFF" stroke-width="0.5">
            <g id="Group-5" transform="translate(321.000000, 363.000000)">
                <g id="Group-2" transform="translate(13.000000, 16.000000)">
                    <g id="noun_gas-cylinder_1921407" transform="translate(0.000000, 0.437500)">
                        <path d="M13.2916667,6.97720242 L13.2916667,1.05196847 C13.2989041,0.732507614 13.1682556,0.436421497 12.9568375,0.293151464 C12.750888,0.153769051 12.5031828,0.194734105 12.328184,0.397117117 C12.3208131,0.40348536 11.5464285,1.05196847 8.45833333,1.05196847 C5.343395,1.05156841 4.608245,0.41304589 4.62211062,0.432166948 C4.442968,0.224887633 4.19094805,0.177419641 3.97669004,0.310601895 C3.76243203,0.443784148 3.62510621,0.733268517 3.625,1.05196847 L3.625,6.97720242 C1.49457794,7.72101246 0.00462275833,10.3151452 0,13.2886213 L0,19.8148378 C0.00314954329,22.4728503 1.19758638,24.863338 3.02083333,25.8605867 L3.02083333,27.1568508 C3.02233896,28.5084064 3.83318127,29.6032408 4.83333333,29.6041667 L12.0833333,29.6041667 C13.0834901,29.6032407 13.8943344,28.5083965 13.8958333,27.1568345 L13.8958333,25.8605704 C15.7190803,24.8633217 16.9135171,22.4728339 16.9166667,19.8148215 L16.9166667,13.2886213 C16.9120439,10.3151452 15.4220887,7.72101246 13.2916667,6.97720242 Z M4.83333333,2.23775985 C6.02421421,2.58093546 7.24117524,2.73057233 8.45833333,2.68348789 C9.67549143,2.73057233 10.8924525,2.58093546 12.0833333,2.23775985 L12.0833333,6.76240484 L10.2708333,6.76240484 L10.2708333,4.31507264 C10.2706799,3.86435868 10.000195,3.49913831 9.66666667,3.49930068 L7.25,3.49930068 C6.91647166,3.49913831 6.64598679,3.86435868 6.64583333,4.31507264 L6.64583333,6.76240484 L4.83333333,6.76240484 L4.83333333,2.23775985 Z M9.0625,6.76237218 L7.85416667,6.76237218 L7.85416667,5.13085276 L9.0625,5.13085276 L9.0625,6.76237218 Z M4.83333333,8.39393243 L12.0833333,8.39393243 C14.0836445,8.39578426 15.7053321,10.5854679 15.7083333,13.2885887 L15.7083333,15.7359209 L1.20833333,15.7359209 L1.20833333,13.2886213 C1.2113346,10.5855005 2.83302214,8.39581692 4.83333333,8.39393243 L4.83333333,8.39393243 Z M12.6875,26.3410543 L12.6875,27.1568345 C12.6869306,27.6073164 12.4166903,27.9722102 12.0833333,27.9726146 L4.83333333,27.9726146 C4.49997633,27.9722102 4.22973606,27.6073164 4.22916667,27.1568345 L4.22916667,26.3410543 L12.6875,26.3410543 L12.6875,26.3410543 Z M12.0833333,24.7095023 L4.83333333,24.7095023 C2.83301979,24.7076504 1.21133128,22.5179618 1.20833333,19.8148378 L1.20833333,17.3675138 L15.7083333,17.3675138 L15.7083333,19.8148378 C15.7053354,22.5179618 14.0836469,24.7076504 12.0833333,24.7095023 Z" id="Shape"></path>
                    </g>
                </g>
            </g>
        </g>
    </g>
</svg>