<?xml version="1.0" encoding="UTF-8"?>
<svg width="19px" height="19px" viewBox="0 0 19 19" version="1.1" xmlns="http://www.w3.org/2000/svg" xmlns:xlink="http://www.w3.org/1999/xlink">
    <!-- Generator: Sketch 55.1 (78136) - https://sketchapp.com -->
    <title>ion-android-checkmark-circle - Ionicons</title>
    <desc>Created with Sketch.</desc>
    <g id="Landing-Page" stroke="none" stroke-width="1" fill="none" fill-rule="evenodd">
        <g id="Landing-Monitor" transform="translate(-425.000000, -3510.000000)" fill="#25A318">
            <g id="Group-16" transform="translate(301.000000, 3253.000000)">
                <g id="Detail-Pro" transform="translate(0.000000, 135.000000)">
                    <g id="Fram">
                        <g id="Group-11" transform="translate(74.000000, 0.000000)">
                            <g id="Detail" transform="translate(50.000000, 48.000000)">
                                <g id="Group-4" transform="translate(0.000000, 68.000000)">
                                    <path d="M5.61778846,13.6730769 L8.54086538,16.5961538 L16.7163462,8.46634615 L18.0408654,9.79086538 L8.54086538,19.2908654 L4.29326923,15.0432692 L5.61778846,13.6730769 Z M17.0817308,15.5 L19,15.5 C19,18.1186028 18.0713234,20.3565612 16.2139423,22.2139423 C14.3565612,24.0713234 12.1186028,25 9.5,25 C6.88139716,25 4.64343877,24.0713234 2.78605769,22.2139423 C0.928676611,20.3565612 0,18.1186028 0,15.5 C0,12.8813972 0.928676611,10.6434388 2.78605769,8.78605769 C4.64343877,6.92867661 6.88139716,6 9.5,6 C10.7179548,6 11.9054429,6.24358731 13.0625,6.73076923 L11.6009615,8.19230769 C10.9310864,8.00961447 10.2307729,7.91826923 9.5,7.91826923 C7.39902796,7.91826923 5.61018367,8.65664326 4.13341346,10.1334135 C2.65664326,11.6101837 1.91826923,13.399028 1.91826923,15.5 C1.91826923,17.600972 2.65664326,19.3898163 4.13341346,20.8665865 C5.61018367,22.3433567 7.39902796,23.0817308 9.5,23.0817308 C11.600972,23.0817308 13.3898163,22.3433567 14.8665865,20.8665865 C16.3433567,19.3898163 17.0817308,17.600972 17.0817308,15.5 Z" id="ion-android-checkmark-circle---Ionicons"></path>
                                </g>
                            </g>
                        </g>
                    </g>
                </g>
            </g>
        </g>
    </g>
</svg>