<?xml version="1.0" encoding="UTF-8"?>
<svg width="65px" height="65px" viewBox="0 0 65 65" version="1.1" xmlns="http://www.w3.org/2000/svg" xmlns:xlink="http://www.w3.org/1999/xlink">
    <!-- Generator: Sketch 55.1 (78136) - https://sketchapp.com -->
    <title>Icon</title>
    <desc>Created with Sketch.</desc>
    <defs>
        <polygon id="path-1" points="0.000182564101 -9.04490828e-05 67.6514646 -9.04490828e-05 67.6514646 64.9999096 0.000182564101 64.9999096"></polygon>
    </defs>
    <g id="Landing-Page" stroke="none" stroke-width="1" fill="none" fill-rule="evenodd">
        <g id="Landing-Monitor" transform="translate(-307.000000, -1120.000000)">
            <g id="Group-9" transform="translate(171.000000, 944.000000)">
                <g id="ประหยัดเวลา" transform="translate(0.000000, 97.000000)">
                    <g id="Icon" transform="translate(135.000000, 79.000000)">
                        <g id="Group-3">
                            <mask id="mask-2" fill="white">
                                <use xlink:href="#path-1"></use>
                            </mask>
                            <g id="Clip-2"></g>
                            <path d="M5.57948718,32.1505376 C5.57948718,16.7349253 18.1731815,4.19354839 33.6512821,4.19354839 C49.128473,4.19354839 61.7230769,16.7349253 61.7230769,32.1505376 C61.7230769,47.5670558 49.1293826,60.1075269 33.6512821,60.1075269 C18.1722719,60.1075269 5.57948718,47.5670558 5.57948718,32.1505376 M64.5128205,32.3252688 C64.5128205,15.4646359 50.668375,1.74731183 33.6512821,1.74731183 C16.6341891,1.74731183 2.78974359,15.4646359 2.78974359,32.3252688 C2.78974359,49.1859017 16.6341891,62.9032258 33.6512821,62.9032258 C50.668375,62.9032258 64.5128205,49.1859017 64.5128205,32.3252688" id="Fill-1" stroke="#0C0086" stroke-width="3" fill="#0C0086" mask="url(#mask-2)"></path>
                        </g>
                        <path d="M49.2910053,32.2323632 C49.2910053,31.485727 48.6772912,30.881393 47.9211078,30.881393 L34.760959,30.881393 L34.760959,14.7120813 C34.760959,13.9654451 34.147245,13.3611111 33.3910615,13.3611111 C32.6357914,13.3611111 32.021164,13.9654451 32.021164,14.7120813 L32.021164,32.2323632 C32.021164,32.9789993 32.6357914,33.5833333 33.3910615,33.5833333 L47.9201945,33.5833333 C48.6772912,33.5833333 49.2910053,32.9789993 49.2910053,32.2323632" id="Fill-4" stroke="#0C0086" stroke-width="2" fill="#0C0086"></path>
                    </g>
                </g>
            </g>
        </g>
    </g>
</svg>