<?xml version="1.0" encoding="UTF-8"?>
<svg width="67px" height="65px" viewBox="0 0 67 65" version="1.1" xmlns="http://www.w3.org/2000/svg" xmlns:xlink="http://www.w3.org/1999/xlink">
    <!-- Generator: Sketch 55.1 (78136) - https://sketchapp.com -->
    <title>Icon</title>
    <desc>Created with Sketch.</desc>
    <g id="Landing-Page" stroke="none" stroke-width="1" fill="none" fill-rule="evenodd">
        <g id="Landing-Monitor" transform="translate(-1067.000000, -1109.000000)" fill="#0C0086" fill-rule="nonzero">
            <g id="Group-9" transform="translate(171.000000, 944.000000)">
                <g id="งานมีประสิทธิภาพมากขึ้น" transform="translate(760.000000, 97.000000)">
                    <g id="Icon" transform="translate(136.000000, 68.000000)">
                        <path d="M60.2424166,0 C56.6604351,0 53.7297229,2.94710327 53.7297229,6.54911839 C53.7297229,8.26826196 54.3809923,9.98740554 55.6835311,11.2153652 C56.0905744,11.6246851 56.4976178,11.9521411 56.9046611,12.197733 C56.9860698,12.197733 56.9860698,12.279597 57.0674785,12.279597 L49.4150634,33.4005038 C49.1708374,33.3186398 48.8452027,33.3186398 48.519568,33.3186398 C45.7516732,33.3186398 43.309413,35.0377834 42.4139177,37.5755668 L27.8417655,31.5176322 C27.9231742,31.1901763 27.9231742,30.8627204 27.9231742,30.6171285 C27.9231742,27.0151134 24.992462,24.0680101 21.4104805,24.0680101 C17.828499,24.0680101 14.8977868,27.0151134 14.8977868,30.6171285 C14.8977868,32.2544081 15.4676475,33.8098237 16.6073689,35.0377834 L7.24537173,51.9836272 C7.00114572,51.9836272 6.7569197,51.9017632 6.51269369,51.9017632 C2.93071216,51.9017632 0,54.8488665 0,58.4508816 C0,62.0528967 2.93071216,65 6.51269369,65 C10.0946752,65 13.0253874,62.0528967 13.0253874,58.4508816 C13.0253874,56.5680101 12.2113007,54.7670025 10.8273533,53.5390428 C10.6645359,53.3753149 10.5017186,53.2934509 10.3389012,53.1297229 L19.3752637,36.756927 C20.0265331,37.0025189 20.7592111,37.0843829 21.4918892,37.0843829 C23.6085146,37.0843829 25.4809141,36.1020151 26.7020441,34.4647355 L42.2511003,40.9319899 C42.820961,43.9609572 45.4260385,46.3350126 48.6823853,46.3350126 C52.2643669,46.3350126 55.195079,43.3879093 55.195079,39.7858942 C55.195079,37.7392947 54.218175,35.8564232 52.5900016,34.6284635 L60.2424166,13.0982368 C63.4173548,13.0982368 66.1852496,10.7241814 66.6737017,7.53148615 C66.7551103,7.20403023 66.7551103,6.87657431 66.7551103,6.54911839 C66.7551103,2.94710327 63.8243982,0 60.2424166,0 Z M6.51269369,61.7254408 C4.72170293,61.7254408 3.25634685,60.2518892 3.25634685,58.4508816 C3.25634685,56.6498741 4.72170293,55.1763224 6.51269369,55.1763224 C7.3267804,55.1763224 8.05945844,55.5037783 8.62931914,55.9949622 C9.36199718,56.6498741 9.76904054,57.5503778 9.76904054,58.4508816 C9.76904054,60.2518892 8.30368446,61.7254408 6.51269369,61.7254408 Z M24.5854187,31.1083123 C24.3411927,32.663728 22.9572453,33.8916877 21.4104805,33.8916877 C20.5149851,33.8916877 19.7008984,33.5642317 19.1310377,32.9093199 C18.4797683,32.2544081 18.1541337,31.4357683 18.1541337,30.6171285 C18.1541337,28.8161209 19.6194897,27.3425693 21.4104805,27.3425693 C23.2014713,27.3425693 24.6668274,28.8161209 24.6668274,30.6171285 C24.6668274,30.7808564 24.5854187,30.9445844 24.5854187,31.1083123 Z M48.519568,43.1423174 C46.7285772,43.1423174 45.2632211,41.6687657 45.2632211,39.8677582 C45.2632211,39.6221662 45.2632211,39.3765743 45.3446298,39.2128463 C45.6702645,37.7392947 46.9728032,36.593199 48.519568,36.593199 C49.1708374,36.593199 49.7406981,36.756927 50.2291501,37.0843829 C51.2060541,37.6574307 51.7759148,38.7216625 51.7759148,39.8677582 C51.7759148,41.6687657 50.3105588,43.1423174 48.519568,43.1423174 Z M63.4987635,7.04030227 C63.2545375,8.59571788 61.8705901,9.82367758 60.3238253,9.82367758 C59.7539646,9.82367758 59.1841039,9.65994962 58.6956519,9.3324937 C58.4514259,9.16876574 58.2071999,9.00503778 58.0443825,8.84130982 C57.3931131,8.18639798 57.0674785,7.36775819 57.0674785,6.54911839 C57.0674785,4.74811083 58.5328345,3.27455919 60.3238253,3.27455919 C62.1148161,3.27455919 63.5801722,4.74811083 63.5801722,6.54911839 C63.4987635,6.71284635 63.4987635,6.87657431 63.4987635,7.04030227 Z" id="Shape"></path>
                    </g>
                </g>
            </g>
        </g>
    </g>
</svg>