<?xml version="1.0" encoding="UTF-8"?>
<svg width="135px" height="52px" viewBox="0 0 135 52" version="1.1" xmlns="http://www.w3.org/2000/svg" xmlns:xlink="http://www.w3.org/1999/xlink">
    <!-- Generator: Sketch 55.1 (78136) - https://sketchapp.com -->
    <title>Group 25</title>
    <desc>Created with Sketch.</desc>
    <defs>
        <radialGradient cx="28.8893054%" cy="97.5335635%" fx="28.8893054%" fy="97.5335635%" r="121.66458%" gradientTransform="translate(0.288893,0.975336),scale(0.795455,1.000000),translate(-0.288893,-0.975336)" id="radialGradient-1">
            <stop stop-color="#261F44" offset="0%"></stop>
            <stop stop-color="#261F6B" offset="47%"></stop>
            <stop stop-color="#261F9B" offset="100%"></stop>
        </radialGradient>
        <radialGradient cx="33.1524073%" cy="110.608404%" fx="33.1524073%" fy="110.608404%" r="121.523849%" gradientTransform="translate(0.331524,1.106084),scale(0.911765,1.000000),translate(-0.331524,-1.106084)" id="radialGradient-2">
            <stop stop-color="#261F44" offset="0%"></stop>
            <stop stop-color="#261E4A" offset="21%"></stop>
            <stop stop-color="#261C5B" offset="48%"></stop>
            <stop stop-color="#261777" offset="79%"></stop>
            <stop stop-color="#26148D" offset="100%"></stop>
        </radialGradient>
        <radialGradient cx="91.6417166%" cy="4.51746596%" fx="91.6417166%" fy="4.51746596%" r="149.120509%" gradientTransform="translate(0.916417,0.045175),scale(1.000000,0.956522),translate(-0.916417,-0.045175)" id="radialGradient-3">
            <stop stop-color="#261F44" offset="0%"></stop>
            <stop stop-color="#261F5B" offset="14%"></stop>
            <stop stop-color="#261F77" offset="36%"></stop>
            <stop stop-color="#261F8B" offset="57%"></stop>
            <stop stop-color="#261F97" offset="79%"></stop>
            <stop stop-color="#261F9B" offset="100%"></stop>
        </radialGradient>
        <radialGradient cx="-48.234745%" cy="322.344584%" fx="-48.234745%" fy="322.344584%" r="451.367981%" gradientTransform="translate(-0.482347,3.223446),scale(0.500000,1.000000),translate(0.482347,-3.223446)" id="radialGradient-4">
            <stop stop-color="#261F44" offset="0%"></stop>
            <stop stop-color="#261E4A" offset="21%"></stop>
            <stop stop-color="#261C5B" offset="48%"></stop>
            <stop stop-color="#261777" offset="79%"></stop>
            <stop stop-color="#26148D" offset="100%"></stop>
        </radialGradient>
        <radialGradient cx="110.039453%" cy="-0.391018425%" fx="110.039453%" fy="-0.391018425%" r="259.122543%" gradientTransform="translate(1.100395,-0.003910),scale(1.000000,0.521739),translate(-1.100395,0.003910)" id="radialGradient-5">
            <stop stop-color="#261F44" offset="0%"></stop>
            <stop stop-color="#261E4A" offset="21%"></stop>
            <stop stop-color="#261C5B" offset="48%"></stop>
            <stop stop-color="#261777" offset="79%"></stop>
            <stop stop-color="#26148D" offset="100%"></stop>
        </radialGradient>
    </defs>
    <g id="Landing-Page" stroke="none" stroke-width="1" fill="none" fill-rule="evenodd">
        <g id="Landing-Monitor" transform="translate(-386.000000, -4108.000000)">
            <g id="Group-25" transform="translate(386.000000, 4108.000000)">
                <g id="Logo-Ezygas" transform="translate(48.000000, 21.000000)" fill="#040482">
                    <polygon id="Path" points="0 0 13.4954368 0 13.4954368 3.86466034 4.3767927 3.86466034 4.3767927 7.40601898 12.9900043 7.40601898 12.9900043 11.2706793 4.37635811 11.2706793 4.37635811 15.1353397 14 15.1353397 14 19 0 19"></polygon>
                    <polygon id="Path" points="16 14.9876339 23.0001793 9.20981005 16.1665173 9.20981005 16.1665173 6 27.8334827 6 27.8334827 9.85326364 20.5002689 15.7897756 28 15.7897756 28 19 16 19"></polygon>
                    <path d="M37.9999155,20.7871258 C37.7275748,21.4673758 37.4639649,22.0692497 37.2090855,22.5927476 C36.9754206,23.0875728 36.646972,23.5358737 36.2408258,23.9143297 C35.8496353,24.2718866 35.35424,24.5421488 34.7546399,24.7251163 C34.1550399,24.9080838 33.3640691,24.9997027 32.3817275,25 C31.3437794,25.0023865 30.3122887,24.8433003 29.3274002,24.5289059 L29.8727856,21.3096778 C30.4733684,21.5676609 31.1238387,21.7013697 31.7818458,21.7020985 C32.2361225,21.7020985 32.6088659,21.654127 32.900076,21.5581839 C33.1712997,21.473649 33.418618,21.3303623 33.6228913,21.1394126 C33.8213441,20.9454869 33.9827772,20.7196329 34.0998395,20.4721352 C34.2271383,20.2102512 34.3635903,19.9048549 34.5091954,19.5559464 L34.8091362,18.8234007 L29,6 L33.4180021,6 L36.827189,14.4009653 L36.8816853,14.4009653 L39.7999831,6 L44,6 L37.9999155,20.7871258 Z" id="Path"></path>
                    <path d="M59,17.3857196 C59,19.8783419 58.3418891,21.7706139 57.0256674,23.0625354 C55.7094456,24.3544569 53.7068056,25.0002778 51.0177473,25 C49.7939895,25.0005935 48.5741086,24.8687963 47.3814904,24.607133 C46.1887652,24.3449431 45.0903493,23.8345544 44.0862425,23.0759667 L46.4442654,19.7181459 C47.0765551,20.2235069 47.7791845,20.6428829 48.532121,20.9643171 C49.2607804,21.2721174 50.0608684,21.4260175 50.932385,21.4260175 C52.2392198,21.4260175 53.2003521,21.1233939 53.8157818,20.5181467 C54.4312116,19.9128995 54.7392198,19.1406007 54.7398065,18.2012504 L54.7398065,16.9248587 L54.6830449,16.9248587 C54.1902318,17.5572483 53.5794955,18.0049578 52.8508361,18.267987 C52.1221767,18.5310163 51.4356117,18.6619714 50.7911412,18.6608521 C49.768554,18.6608521 48.8407159,18.4938005 48.007627,18.1596973 C47.1953804,17.8392507 46.4638813,17.3576597 45.8616899,16.7468942 C45.2543877,16.1252076 44.7856991,15.3923979 44.4840131,14.5928522 C44.1613379,13.7620714 44,12.8498634 44,11.8562283 C43.9997833,10.98989 44.1484241,10.129375 44.440012,9.30890147 C44.7145659,8.51140171 45.138074,7.76784789 45.6900853,7.11414586 C46.2316343,6.48046285 46.9035651,5.95935625 47.6644179,5.58297958 C48.4405986,5.19487146 49.320622,5.00067749 50.3044883,5.00039768 C51.3510027,4.98902889 52.3846003,5.22157643 53.3154885,5.67783802 C53.6839985,5.85770646 54.0275188,6.08076871 54.3380758,6.34184708 C54.5935255,6.55537358 54.8222369,6.79635839 55.0196539,7.060001 L55.0768554,7.060001 L55.0768554,5.32736547 L58.9969199,5.32736547 L59,17.3857196 Z M48.2636958,11.8306249 C48.26079,12.6794589 48.6137688,13.4941744 49.24406,14.0933764 C49.5565603,14.3916843 49.9219894,14.6348257 50.3234088,14.8115303 C51.1781133,15.1723776 52.1527758,15.1723776 53.0074803,14.8115303 C53.4144405,14.6371141 53.7849013,14.3937989 54.1009094,14.0933764 C54.7307888,13.4936416 55.0847492,12.6795616 55.0847492,11.8306249 C55.0847492,10.9816882 54.7307888,10.1676081 54.1009094,9.5678734 C53.7848836,9.2675794 53.4144208,9.02440512 53.0074803,8.8501392 C52.1529037,8.48871487 51.1779853,8.48871487 50.3234088,8.8501392 C49.9219905,9.02666355 49.5565542,9.26966764 49.24406,9.5678734 C48.6137688,10.1670754 48.26079,10.9817908 48.2636958,11.8306249 L48.2636958,11.8306249 Z" id="Shape" fill-rule="nonzero"></path>
                    <path d="M70.4536589,16.9951063 L70.4019107,16.9951063 C69.9735952,17.7090185 69.4039674,18.2214255 68.6930273,18.5323273 C67.9794398,18.8441702 67.2153839,19.0030624 66.4443707,19 C65.8744328,19.0017659 65.30735,18.9139591 64.7613614,18.7393589 C64.243743,18.5777156 63.7596957,18.3122458 63.3351025,17.9571448 C62.9240145,17.6098291 62.590353,17.1692708 62.3582565,16.6673416 C62.1194188,16.155218 62,15.5600551 62,14.8818527 C62,14.1135257 62.1326876,13.4640895 62.3980628,12.9335442 C62.6571303,12.4106344 63.0267575,11.9594104 63.477609,11.6156834 C63.9515693,11.2584054 64.4766695,10.9856208 65.0324421,10.8079622 C65.6244379,10.6137351 66.2303199,10.4715554 66.8440257,10.3828458 C67.4661407,10.2917843 68.0924119,10.2367222 68.7200955,10.2179006 C69.3450541,10.2000458 69.9233066,10.1909766 70.454853,10.1906932 C70.454853,9.45892616 70.2107079,8.87793374 69.7224176,8.44771594 C69.2341272,8.01749814 68.6560074,7.80153901 67.9880581,7.79983854 C67.3540768,7.79983854 66.7758243,7.94154401 66.2533006,8.22495495 C65.7218936,8.51615759 65.2467706,8.91193465 64.8529158,9.39147436 L62.7969216,7.14090812 C63.5220806,6.42351305 64.3800632,5.87651733 65.3154647,5.53524347 C66.2738116,5.17866558 67.2817149,4.99770788 68.2965568,5 C69.427055,5 70.3558681,5.15093824 71.0829961,5.45277088 C71.8101241,5.75460353 72.3926226,6.19842506 72.8304916,6.78423546 C73.2675645,7.36947904 73.5716845,8.08750064 73.7428515,8.93830027 C73.9140184,9.7890999 73.9997346,10.7725358 74,11.8886081 L74,18.6679394 L70.4536589,18.6679394 L70.4536589,16.9951063 Z M69.5026869,12.8234391 C69.2109069,12.8234391 68.8474756,12.8374679 68.4104027,12.8659507 C67.9836923,12.891667 67.5611966,12.9699832 67.1513302,13.0993396 C66.7747393,13.2129017 66.4245232,13.4092503 66.1231341,13.6757975 C65.8405095,13.9308673 65.6991972,14.2876817 65.6991972,14.7462406 C65.6991972,15.2402258 65.8962383,15.6061093 66.2903204,15.8438911 C66.6651797,16.076466 67.0907899,16.199484 67.524315,16.2005789 C67.8938929,16.2016309 68.2617134,16.1462297 68.6165992,16.0360437 C68.950555,15.9345582 69.2671648,15.7766888 69.5544351,15.5684157 C69.8258995,15.3703714 70.0502696,15.1073146 70.2096464,14.8002304 C70.3723214,14.4884783 70.4537915,14.1224531 70.4540569,13.7021547 L70.4540569,12.8234391 L69.5026869,12.8234391 Z" id="Shape" fill-rule="nonzero"></path>
                    <path d="M84.0578531,9.25397211 C83.4748432,8.50372148 82.7061187,8.1284544 81.7516796,8.12817085 C81.4106539,8.12952069 81.0747445,8.21418187 80.7712377,8.37527721 C80.4531825,8.53973124 80.294155,8.82327268 80.294155,9.22590151 C80.294155,9.5556602 80.457562,9.79822989 80.7843759,9.9536106 C81.1111899,10.1089913 81.5264134,10.2462254 82.0300463,10.3653128 C82.5336792,10.4849672 83.0726212,10.6125609 83.6468722,10.7480937 C84.2127557,10.8821966 84.7572118,11.0994632 85.2636981,11.3932922 C85.764577,11.6836156 86.1916734,12.0931017 86.509779,12.587994 C86.836593,13.0929813 87,13.7663922 87,14.6082268 C87,15.468775 86.8189385,16.1776286 86.4568155,16.7347875 C86.0992341,17.2885153 85.6228789,17.7490772 85.0649821,18.0804751 C84.4726388,18.4289648 83.8272866,18.6703124 83.1566512,18.7941489 C82.4663458,18.9298207 81.7653613,18.9987342 81.0627426,19 C80.1393998,18.9965972 79.2208253,18.8626638 78.33245,18.6019078 C77.4135936,18.3367966 76.6361103,17.865409 76,17.1877449 L78.4121006,14.4147097 C78.7832562,14.8910593 79.1938265,15.2525747 79.6438116,15.4992557 C80.0937967,15.7459368 80.6194635,15.8695608 81.2208122,15.8701279 C81.6445318,15.8760943 82.0660705,15.8063127 82.4668931,15.6638515 C82.8375012,15.526901 83.0229422,15.275258 83.0232159,14.9089224 C83.0232159,14.5615842 82.8598089,14.3007261 82.5329949,14.1263481 C82.2061809,13.9519701 81.7909575,13.805521 81.2873246,13.6870006 C80.7836916,13.5684803 80.2447497,13.4408867 79.6704987,13.3042197 C79.1083365,13.171913 78.5650335,12.9649153 78.0540833,12.6883677 C77.5507912,12.4139567 77.1223752,12.0125778 76.808413,11.5213112 C76.4799567,11.0180251 76.3165497,10.3453231 76.318192,9.50320503 C76.318192,8.71637756 76.4728402,8.03913884 76.7821365,7.4714889 C77.0813015,6.91538064 77.4980288,6.43658108 78.0011197,6.07093599 C78.5278291,5.69431992 79.11612,5.41980263 79.7374216,5.26071635 C80.3868687,5.08759354 81.0547979,5 81.7254031,5 C82.5954338,5.00283814 83.4608085,5.13167907 84.2963944,5.38278093 C85.1370057,5.6235756 85.8978392,6.09840842 86.4962302,6.75568855 L84.0578531,9.25397211 Z" id="Path"></path>
                </g>
                <g id="EasyGas-Logo-Phase-2-01" fill-rule="nonzero">
                    <path d="M9.69351354,35 L9.69351354,25.216916 C9.69377013,23.8548601 10.2546748,22.5531981 11.2439454,21.6189106 L15.8000976,17.313387 C16.0882146,17.042055 16.1977963,16.6304889 16.0828471,16.2514384 L14.7856837,11.9620253 C14.6918652,11.6463235 14.7521896,11.3047812 14.9484462,11.0405045 C15.1447028,10.7762277 15.4538928,10.6201861 15.782677,10.619486 L24.999505,10.619486 C25.3285519,10.6199066 25.6381405,10.7757342 25.834893,11.0399685 C26.0316454,11.3042027 26.0925284,11.6459101 25.9991784,11.9620253 L24.7355162,16.2138473 C24.6232112,16.5919405 24.7331034,17.0011682 25.0196057,17.2717683 L29.6266797,21.6242808 C30.6159502,22.5585683 31.1768549,23.8602303 31.1771115,25.2222862 L31.1771115,28.3839662 C39.6636151,23.7092443 40.7825525,16.593786 40.7825525,16.593786 C37.8491945,19.1526659 35.3888722,17.6355965 35.3888722,17.6355965 C43.2428747,14.0335635 44,0.947832758 44,0.947832758 C44,0.947832758 39.5054898,4.64652858 32.360371,3.03413886 C26.1117422,1.61910242 20.9083483,4.36191024 20.9083483,4.36191024 C22.5164021,3.12945915 22.0447063,0 22.0447063,0 C21.8544199,2.0795934 19.3940977,2.36555428 13.8101311,4.16724204 L13.7297284,4.19275029 C13.6131445,4.23034139 13.4965606,4.27061757 13.3799767,4.31089375 C5.38124943,7.07383966 -2.8935271,14.9760261 0.987242591,27.3018796 C3.08575272,33.9689298 9.69351354,35 9.69351354,35 Z" id="Path" fill="url(#radialGradient-1)"></path>
                    <path d="M31.4262492,26.4190783 C31.4238176,24.7598968 30.7586636,23.1748323 29.5869821,22.0360977 L25.3153075,17.8887023 C25.0309718,17.6126315 24.9219106,17.1951304 25.0333663,16.8093934 L26.2874725,12.4716122 C26.3801166,12.1491061 26.319694,11.8004904 26.1244294,11.5309142 C25.9291648,11.2613379 25.6219174,11.1023599 25.2953588,11.1019308 L16.1482299,11.1019308 C15.821932,11.1026451 15.5150801,11.2618414 15.3203077,11.531461 C15.1255352,11.8010806 15.0656669,12.1495279 15.158776,12.4716122 L16.44613,16.8545929 C16.56021,17.2413066 16.451457,17.6611933 16.1655188,17.9380109 L11.9443808,22.0292493 C10.7721728,23.1676039 10.1069158,24.7529139 10.1051137,26.4122299 L10.1051137,36 C8.57172611,35.3781646 5.89461497,32.8908231 4.82137667,28.9707949 C1.96339761,18.5420404 7.02370953,11.8566253 12.913886,9.52131843 C13.0003302,9.48707639 13.0854445,9.45420404 13.1718888,9.42270137 L13.2317348,9.40078646 C17.6204416,7.90235497 18.8891768,6.76414969 19.0274876,5 C19.0274876,5 20.248346,8.09548005 17.9010528,9.15972253 C17.9010528,9.15972253 22.6887329,6.54774003 28.0442851,7.22436266 C33.4304253,7.90920338 38,6.25736756 38,6.25736756 C38,6.25736756 36.6474804,15.9821058 30.8623669,19.0255379 C30.8623669,19.0255379 32.8346251,20.9608978 36.4041066,20.4774003 C36.4041066,20.4774003 36.7791416,25.023373 31.4262492,29.2556886 L31.4262492,26.4190783 Z" id="Path" fill="url(#radialGradient-2)"></path>
                    <path d="M25.8454341,31.4674956 C23.5272348,32.1015665 21.3100517,33.0549922 19.2586078,34.2999408 C13.4759232,37.8622854 10,44.1794553 10,50.9405565 L10,50.9405565 C10,51.525671 10.4779874,52 11.0676148,52 L30.9323852,52 C31.5220126,52 32,51.525671 32,50.9405565 L32,29 C30.0489969,30.0505746 27.9843006,30.878355 25.8454341,31.4674956 L25.8454341,31.4674956 Z" id="Path" fill="url(#radialGradient-3)"></path>
                    <path d="M22.2416578,13 L17.7612505,13 C17.5209197,12.9989617 17.2943526,13.1176999 17.1505918,13.3200378 C17.006831,13.5223757 16.962907,13.7843434 17.0322051,14.0261106 L17.2962787,15.4292045 C17.3915453,15.7679747 17.6878251,16.0003452 18.0240606,16 L18.4511271,16 C18.4445127,15.9623411 18.4411298,15.9241347 18.441019,15.8858406 L18.441019,15.5526556 C18.441019,15.3731068 18.5089099,15.2009118 18.6297565,15.0739517 C18.7506031,14.9469915 18.9145063,14.875666 19.0854092,14.875666 L20.8303169,14.875666 C21.1862038,14.875666 21.4747071,15.1787646 21.4747071,15.5526556 L21.4747071,15.8831857 C21.4745963,15.9214799 21.4712134,15.9596862 21.464599,15.9973448 L21.9775842,15.9973448 C22.3142871,15.9982801 22.6112313,15.7657921 22.7066296,15.4265497 L22.9681762,14.0247831 C23.036858,13.7836393 22.9929956,13.5225782 22.8498812,13.3207109 C22.7067667,13.1188436 22.4812452,12.9999306 22.2416578,13 L22.2416578,13 Z" id="Path" fill="url(#radialGradient-4)"></path>
                    <path d="M32,50.9385035 L32,29 C30.6336273,30.421338 29.18905,31.7687183 27.6727014,33.0361396 C20,39.4896025 20,52 20,52 L30.9164337,52 C31.2040546,52 31.479875,51.8881208 31.683123,51.6890124 C31.886371,51.4899039 32.0003688,51.2199045 32,50.9385035 Z" id="Path" fill="url(#radialGradient-5)"></path>
                </g>
            </g>
        </g>
    </g>
</svg>