<?xml version="1.0" encoding="UTF-8"?>
<svg width="26px" height="30px" viewBox="0 0 26 30" version="1.1" xmlns="http://www.w3.org/2000/svg" xmlns:xlink="http://www.w3.org/1999/xlink">
    <!-- Generator: Sketch 55.1 (78136) - https://sketchapp.com -->
    <title>EasyGas Logo Phase 2-03</title>
    <desc>Created with Sketch.</desc>
    <defs>
        <radialGradient cx="28.8893054%" cy="97.5338473%" fx="28.8893054%" fy="97.5338473%" r="125.812236%" gradientTransform="translate(0.288893,0.975338),scale(0.769231,1.000000),translate(-0.288893,-0.975338)" id="radialGradient-1">
            <stop stop-color="#261F44" offset="0%"></stop>
            <stop stop-color="#261F6B" offset="47%"></stop>
            <stop stop-color="#261F9B" offset="100%"></stop>
        </radialGradient>
        <radialGradient cx="33.1524073%" cy="110.616771%" fx="33.1524073%" fy="110.616771%" r="130.354301%" gradientTransform="translate(0.331524,1.106168),scale(0.850000,1.000000),translate(-0.331524,-1.106168)" id="radialGradient-2">
            <stop stop-color="#261F44" offset="0%"></stop>
            <stop stop-color="#261E4A" offset="21%"></stop>
            <stop stop-color="#261C5B" offset="48%"></stop>
            <stop stop-color="#261777" offset="79%"></stop>
            <stop stop-color="#26148D" offset="100%"></stop>
        </radialGradient>
        <radialGradient cx="91.6417166%" cy="4.51154529%" fx="91.6417166%" fy="4.51154529%" r="149.120509%" id="radialGradient-3">
            <stop stop-color="#261F44" offset="0%"></stop>
            <stop stop-color="#261F5B" offset="14%"></stop>
            <stop stop-color="#261F77" offset="36%"></stop>
            <stop stop-color="#261F8B" offset="57%"></stop>
            <stop stop-color="#261F97" offset="79%"></stop>
            <stop stop-color="#261F9B" offset="100%"></stop>
        </radialGradient>
        <radialGradient cx="-48.1958355%" cy="321.587886%" fx="-48.1958355%" fy="321.587886%" r="902.007752%" gradientTransform="translate(-0.481958,3.215879),scale(0.250000,1.000000),translate(0.481958,-3.215879)" id="radialGradient-4">
            <stop stop-color="#261F44" offset="0%"></stop>
            <stop stop-color="#261E4A" offset="21%"></stop>
            <stop stop-color="#261C5B" offset="48%"></stop>
            <stop stop-color="#261777" offset="79%"></stop>
            <stop stop-color="#26148D" offset="100%"></stop>
        </radialGradient>
        <radialGradient cx="110.039453%" cy="-0.391018425%" fx="110.039453%" fy="-0.391018425%" r="259.122543%" gradientTransform="translate(1.100395,-0.003910),scale(1.000000,0.538462),translate(-1.100395,0.003910)" id="radialGradient-5">
            <stop stop-color="#261F44" offset="0%"></stop>
            <stop stop-color="#261E4A" offset="21%"></stop>
            <stop stop-color="#261C5B" offset="48%"></stop>
            <stop stop-color="#261777" offset="79%"></stop>
            <stop stop-color="#26148D" offset="100%"></stop>
        </radialGradient>
    </defs>
    <g id="Landing-Page" stroke="none" stroke-width="1" fill="none" fill-rule="evenodd">
        <g id="Landing-Mobile" transform="translate(-20.000000, -20.000000)" fill-rule="nonzero">
            <g id="EasyGas-Logo-Phase-2-03" transform="translate(20.000000, 20.000000)">
                <path d="M5.72798527,20 L5.72798527,14.4110766 C5.728107,13.6326196 6.05953774,12.8886499 6.64414953,12.354543 L9.33642132,9.89529398 C9.50667228,9.74026495 9.57142507,9.50511138 9.50350053,9.28853603 L8.73699492,6.83388946 C8.68155668,6.65350917 8.71720297,6.45836462 8.83317276,6.30736671 C8.94914255,6.1563688 9.13184576,6.06721242 9.32612733,6.06681241 L14.7724348,6.06681241 C14.9668716,6.0670527 15.1498103,6.15608684 15.2660731,6.30706045 C15.3823359,6.45803406 15.4183123,6.65327299 15.3631509,6.83388946 L14.6164414,9.26245541 C14.5498876,9.4784813 14.6148511,9.71239665 14.7843125,9.86691213 L17.5066744,12.3537759 C18.0912861,12.8878828 18.4227169,13.6318525 18.4228386,14.4103095 L18.4228386,16.2160089 C23.4375907,13.5465808 24.098781,9.48107237 24.098781,9.48107237 C22.3654331,10.9438883 20.9116063,10.0770912 20.9116063,10.0770912 C25.5526078,8.01825643 26,0.542323476 26,0.542323476 C26,0.542323476 23.3441531,2.6540866 19.1220374,1.73359414 C15.4296658,0.928163234 12.3549331,2.49223334 12.3549331,2.49223334 C13.3051467,1.78728953 13.0264174,0 13.0264174,0 C12.9139754,1.19203774 11.4601486,1.353891 8.16053202,2.3833084 L8.11302134,2.39864994 C8.04386691,2.4201281 7.97497642,2.44237334 7.90634989,2.46538565 C3.17982921,4.0447973 -1.70981147,8.56057991 0.583370622,15.6023473 C1.82339933,19.4116519 5.72798527,20 5.72798527,20 Z" id="Path" fill="url(#radialGradient-1)"></path>
                <path d="M17.1330878,14.7484316 C17.1317499,13.8385796 16.7404677,12.9693554 16.0511659,12.3449677 L13.5384162,10.0631793 C13.3709973,9.91188566 13.3068168,9.68284777 13.3725684,9.47132632 L14.110278,7.09339931 C14.1647745,6.91654893 14.1292318,6.72538101 14.0143702,6.57755541 C13.8995087,6.4297298 13.7187749,6.34255215 13.5266816,6.34231687 L8.1460176,6.34231687 C7.95407767,6.34270854 7.77357655,6.43000588 7.65900452,6.57785528 C7.5444325,6.72570467 7.50921585,6.91678019 7.5639859,7.09339931 L8.32125295,9.49686313 C8.38835881,9.70892258 8.32438647,9.93917287 8.15618751,10.0909693 L5.67316517,12.3389591 C4.98324303,12.9629293 4.59183938,13.8324232 4.59124333,14.7424229 L4.59124333,20 C3.68925065,19.6590086 2.11447939,18.2950429 1.48316275,16.1454449 C-0.198001403,10.4267032 2.77865267,6.75691438 6.24346236,5.48007422 L6.39522869,5.42524521 L6.43043222,5.41322789 C9.01202445,4.5915437 9.75833929,3.96814527 9.83969856,3 C9.83969856,3 10.5578506,4.69744632 9.17708989,5.28103738 C9.17708989,5.28103738 11.9933723,3.84872316 15.1436971,4.22050897 C18.3120149,4.59605019 21,3.69024476 21,3.69024476 C21,3.69024476 20.2044002,9.02293011 16.8013923,10.6918353 C16.8013923,10.6918353 17.9615442,11.7523637 20.0612392,11.4872316 C20.0612392,11.4872316 20.281848,13.9808253 17.1330878,16.300919 L17.1330878,14.7484316 Z" id="Path" fill="url(#radialGradient-2)"></path>
                <path d="M15.3632111,18.3939017 C13.9934904,18.7526243 12.6833846,19.2914974 11.4709955,19.994849 C8.05395459,22.0083481 6,25.5850799 6,29.4011841 L6,29.4011841 C6,29.731901 6.28244711,30 6.63086327,30 L18.3691367,30 C18.7175529,30 19,29.731901 19,29.4011841 L19,17 C17.847257,17.5938556 16.6271715,18.0614877 15.3632111,18.3939017 Z" id="Path" fill="url(#radialGradient-3)"></path>
                <path d="M13.4916197,7 L10.5070909,7 C10.3469997,6.99965835 10.1960768,7.0391502 10.1003135,7.10644699 C10.0045503,7.17374379 9.9752913,7.26087323 10.0214527,7.34128406 L10.1973598,7.80750616 C10.2605121,7.92035474 10.4579471,7.99784924 10.6821564,7.99779189 L10.9666377,7.99779189 C10.9622713,7.98526393 10.9600182,7.9725585 10.9599044,7.95982304 L10.9599044,7.84900699 C10.9599044,7.7246523 11.1520848,7.62384291 11.3891513,7.62384291 L12.5514847,7.62384291 C12.7885513,7.62384291 12.9807317,7.7246523 12.9807317,7.84900699 L12.9807317,7.96203053 C12.9806178,7.974766 12.9783647,7.98747142 12.9739984,8 L13.3157126,8 C13.5402334,8.00025303 13.7381112,7.92271935 13.8013508,7.80971365 L13.9772579,7.34349155 C14.0250534,7.2627924 13.9965818,7.174974 13.9006174,7.10709956 C13.8046529,7.03922513 13.6527124,6.9994404 13.4916197,7 L13.4916197,7 Z" id="Path" fill="url(#radialGradient-4)"></path>
                <path d="M19,29.4000237 L19,17 C18.2027996,17.8029813 17.360137,18.5642802 16.4757425,19.2805261 C12,22.9289057 12,30 12,30 L18.3679197,30 C18.5356985,30 18.6965937,29.936764 18.8151551,29.8242244 C18.9337164,29.7116848 19.0002151,29.5590764 19,29.4000237 Z" id="Path" fill="url(#radialGradient-5)"></path>
            </g>
        </g>
    </g>
</svg>