<?xml version="1.0" encoding="UTF-8"?>
<svg width="57px" height="65px" viewBox="0 0 57 65" version="1.1" xmlns="http://www.w3.org/2000/svg" xmlns:xlink="http://www.w3.org/1999/xlink">
    <!-- Generator: Sketch 55.1 (78136) - https://sketchapp.com -->
    <title>noun_place_1490494</title>
    <desc>Created with Sketch.</desc>
    <g id="Landing-Page" stroke="none" stroke-width="1" fill="none" fill-rule="evenodd">
        <g id="Landing-Monitor" transform="translate(-692.000000, -1114.000000)" fill="#0C0086" fill-rule="nonzero">
            <g id="Group-9" transform="translate(171.000000, 944.000000)">
                <g id="อยู่ที่ไหนก็จัดการได้" transform="translate(380.000000, 97.000000)">
                    <g id="noun_place_1490494" transform="translate(141.000000, 74.000000)">
                        <g id="Group">
                            <path d="M40.5,4.95953468 C34.4299278,-1.03020135 24.8896809,-1.56839279 18.192397,3.70110175 C11.4951132,8.9705963 9.71285105,18.4174591 14.025,25.7903479 L14.1,25.7903479 L26.625,43.8286245 C27.0466723,44.429103 27.7318376,44.7861408 28.4625,44.7861408 C29.1931624,44.7861408 29.8783277,44.429103 30.3,43.8286245 L42.9,25.8658218 L42.975,25.8658218 C47.0603501,19.1611086 46.0362731,10.5107458 40.5,4.95953468 Z M40.5,24.2053947 L28.5,41.1870359 L16.575,24.2053947 C13.0221157,18.3152951 14.2423582,10.7010796 19.4551383,6.23356293 C24.6679184,1.76604627 32.3320816,1.76604627 37.5448617,6.23356293 C42.7576418,10.7010796 43.9778843,18.3152951 40.425,24.2053947 L40.5,24.2053947 Z" id="Shape" stroke="#0C0086"></path>
                            <path d="M28.5,8.28038896 C23.4880159,8.28038896 19.425,12.369081 19.425,17.4127382 C19.425,22.4563955 23.4880159,26.5450875 28.5,26.5450875 L28.5,26.5450875 C33.5119841,26.5450875 37.575,22.4563955 37.575,17.4127382 C37.575,12.369081 33.5119841,8.28038896 28.5,8.28038896 L28.5,8.28038896 Z M28.5,23.5261291 L28.5,23.5261291 C25.1448701,23.5261291 22.425,20.7890708 22.425,17.4127382 C22.425,14.0364057 25.1448701,11.2993474 28.5,11.2993474 C31.8551299,11.2993474 34.575,14.0364057 34.575,17.4127382 C34.575,19.0341103 33.9349572,20.5890752 32.7956737,21.7355583 C31.6563902,22.8820415 30.1111902,23.5261291 28.5,23.5261291 L28.5,23.5261291 Z" id="Shape" stroke="#0C0086"></path>
                            <path d="M6,52.2817082 C2.81055557,52.2817082 0.225,54.8836031 0.225,58.0932031 C0.225,61.3028032 2.81055557,63.9046981 6,63.9046981 C9.18944443,63.9046981 11.775,61.3028032 11.775,58.0932031 C11.775,54.8836031 9.18944443,52.2817082 6,52.2817082 Z M6,60.8102657 C4.46740982,60.8102657 3.225,59.5600045 3.225,58.0177292 C3.225,56.4754538 4.46740982,55.2251926 6,55.2251926 C7.53259018,55.2251926 8.775,56.4754538 8.775,58.0177292 C8.79524753,58.7713447 8.5118454,59.5011823 7.98922125,60.0413234 C7.4665971,60.5814645 6.74915657,60.8860151 6,60.8857399 L6,60.8102657 Z" id="Shape"></path>
                            <path d="M26.775,58.0932031 C26.775,54.8836031 24.1894444,52.2817082 21,52.2817082 C17.8105556,52.2817082 15.225,54.8836031 15.225,58.0932031 C15.225,61.3028032 17.8105556,63.9046981 21,63.9046981 C24.1894444,63.9046981 26.775,61.3028032 26.775,58.0932031 Z M18.3,58.0932031 C18.3004125,56.9569479 18.9849234,55.9342394 20.0311066,55.5068054 C21.0772898,55.0793715 22.276517,55.3324504 23.0639143,56.146834 C23.8513116,56.9612177 24.0698575,58.1745029 23.61661,59.215194 C23.1633624,60.2558851 22.1287074,60.9164492 21,60.8857397 C19.4674098,60.8857397 18.225,59.6354785 18.225,58.0932031 L18.3,58.0932031 Z" id="Shape"></path>
                            <path d="M41.775,58.0932031 C41.775,54.8836031 39.1894444,52.2817082 36,52.2817082 C32.8105556,52.2817082 30.225,54.8836031 30.225,58.0932031 C30.225,61.3028032 32.8105556,63.9046981 36,63.9046981 C37.5316252,63.9046981 39.0005191,63.2924174 40.0835417,62.2025507 C41.1665642,61.1126839 41.775,59.6345074 41.775,58.0932031 L41.775,58.0932031 Z M33.3,58.0932031 C33.3004125,56.9569479 33.9849234,55.9342394 35.0311066,55.5068054 C36.0772898,55.0793715 37.276517,55.3324504 38.0639143,56.146834 C38.8513116,56.9612177 39.0698575,58.1745029 38.61661,59.215194 C38.1633624,60.2558851 37.1287074,60.9164492 36,60.8857397 C34.4674098,60.8857397 33.225,59.6354785 33.225,58.0932031 L33.3,58.0932031 Z" id="Shape"></path>
                            <path d="M51,52.2817082 C47.8105556,52.2817082 45.225,54.8836031 45.225,58.0932031 C45.225,61.3028032 47.8105556,63.9046981 51,63.9046981 C54.1894444,63.9046981 56.775,61.3028032 56.775,58.0932031 C56.775,54.8836031 54.1894444,52.2817082 51,52.2817082 Z M51,60.8102657 C49.4674098,60.8102657 48.225,59.5600045 48.225,58.0177292 C48.225,56.4754538 49.4674098,55.2251926 51,55.2251926 C52.5325902,55.2251926 53.775,56.4754538 53.775,58.0177292 C53.7952475,58.7713447 53.5118454,59.5011823 52.9892213,60.0413234 C52.4665971,60.5814645 51.7491566,60.8860151 51,60.8857399 L51,60.8102657 Z" id="Shape"></path>
                        </g>
                    </g>
                </g>
            </g>
        </g>
    </g>
</svg>